<?xml version="1.0" encoding="UTF-8"?>
<!DOCTYPE svg PUBLIC "-//W3C//DTD SVG 1.1//EN" "http://www.w3.org/Graphics/SVG/1.1/DTD/svg11.dtd">
<!-- Creator: CorelDRAW X7 -->
<svg xmlns="http://www.w3.org/2000/svg" xml:space="preserve" width="40.7045mm" height="9.9379mm" version="1.1" style="shape-rendering:geometricPrecision; text-rendering:geometricPrecision; image-rendering:optimizeQuality; fill-rule:evenodd; clip-rule:evenodd"
viewBox="0 0 641 156"
 xmlns:xlink="http://www.w3.org/1999/xlink">
 <defs>
  <style type="text/css">
   <![CDATA[
    .fil0 {fill:#5B5B5B}
    .fil1 {fill:#2B2A29}
    .fil2 {fill:#EF7F1A}
    .fil3 {fill:#FEFEFE;fill-rule:nonzero}
   ]]>
  </style>
 </defs>
 <g id="Layer_x0020_1">
  <metadata id="CorelCorpID_0Corel-Layer"/>
  <g id="worldex_x0020_logo_x0020__x003d__x0020_FINAL.cdr">
   <path class="fil0" d="M22 155l11 0 13 -50 0 0 12 50 11 0 22 -76 -14 0 -13 53 0 0 -13 -53 -10 0 -13 53 -1 0 -13 -53 -14 0 22 76zm71 -38c0,22 18,39 40,39 22,0 40,-17 40,-39 0,-22 -19,-39 -40,-39 -22,0 -40,17 -40,39zm14 0c0,-14 12,-26 26,-26 14,0 26,12 26,26 0,14 -12,26 -26,26 -14,0 -26,-12 -26,-26zm74 38l14 0 0 -29 0 0 20 29 17 0 -20 -28c4,-1 8,-2 12,-6 6,-6 8,-13 8,-18 0,-9 -5,-15 -9,-19 -5,-3 -10,-5 -19,-5l-23 0 0 76zm14 -63l9 0c11,0 14,8 14,12 0,4 -2,11 -14,11l-9 0 0 -23zm45 63l37 0 0 -13 -23 0 0 -63 -14 0 0 76zm42 0l18 0c8,0 18,-1 25,-5 11,-6 18,-19 18,-33 0,-12 -5,-23 -12,-29 -5,-4 -13,-9 -31,-9l-18 0 0 76zm15 -63l2 0c9,0 16,1 22,7 5,4 8,11 8,18 0,8 -4,17 -11,21 -6,3 -11,4 -19,4l-2 0 0 -50zm55 63l41 0 0 -13 -26 0 0 -18 25 0 0 -13 -25 0 0 -19 26 0 0 -13 -41 0 0 76zm46 0l17 0 18 -26 18 26 16 0 -26 -38 26 -38 -16 0 -18 27 -18 -27 -17 0 27 38 -27 38z"/>
   <g>
    <polygon class="fil1" points="603,0 641,0 641,37 603,37 "/>
    <polygon class="fil0" points="618,156 618,156 603,156 499,156 499,156 484,156 484,156 484,156 484,141 484,141 484,37 484,22 484,22 499,22 499,22 591,22 591,37 499,37 499,141 603,141 603,50 618,50 618,143 "/>
    <polygon class="fil2" points="512,50 591,50 591,129 512,129 "/>
    <path class="fil3" d="M518 99l3 0 0 -19 -3 0 0 19zm7 0l3 0 0 -14 0 0 8 14 4 0 0 -19 -4 0 0 14 0 0 -7 -14 -4 0 0 19zm18 0l5 0c2,0 4,0 6,-1 3,-2 4,-5 4,-9 0,-2 -1,-5 -3,-7 -1,-1 -3,-2 -8,-2l-4 0 0 19zm4 -16l0 0c3,0 4,1 6,2 1,1 2,3 2,4 0,2 -1,5 -3,6 -1,0 -3,1 -5,1l0 0 0 -13zm14 16l4 0 0 -19 -4 0 0 19zm6 0l3 0 2 -5 7 0 2 5 4 0 -8 -19 -3 0 -7 19zm9 -14l0 0 2 6 -4 0 2 -6z"/>
   </g>
  </g>
 </g>
</svg>
